<?xml version="1.0" encoding="UTF-8" standalone="no"?>
<!-- Created with Inkscape (http://www.inkscape.org/) -->

<svg
   width="256"
   height="256"
   viewBox="0 0 67.733332 67.733333"
   version="1.1"
   id="svg1"
   xml:space="preserve"
   inkscape:version="1.3.2 (091e20ef0f, 2023-11-25)"
   sodipodi:docname="copy-link-symbolic.svg"
   xmlns:inkscape="http://www.inkscape.org/namespaces/inkscape"
   xmlns:sodipodi="http://sodipodi.sourceforge.net/DTD/sodipodi-0.dtd"
   xmlns="http://www.w3.org/2000/svg"
   xmlns:svg="http://www.w3.org/2000/svg"><sodipodi:namedview
     id="namedview1"
     pagecolor="#ffffff"
     bordercolor="#000000"
     borderopacity="0.25"
     inkscape:showpageshadow="2"
     inkscape:pageopacity="0.0"
     inkscape:pagecheckerboard="0"
     inkscape:deskcolor="#d1d1d1"
     inkscape:document-units="px"
     inkscape:zoom="3.2187449"
     inkscape:cx="129.24292"
     inkscape:cy="125.51476"
     inkscape:window-width="1920"
     inkscape:window-height="1019"
     inkscape:window-x="0"
     inkscape:window-y="30"
     inkscape:window-maximized="1"
     inkscape:current-layer="layer1" /><defs
     id="defs1" /><g
     inkscape:label="Layer 1"
     inkscape:groupmode="layer"
     id="layer1"><path
       d="m 0.2867341,12.893968 c 0,-6.89666 5.6956074,-12.58124101 12.6059959,-12.58124101 h 21.010048 c 6.910229,0 12.605996,5.68458101 12.605996,12.58124101 0,2.309876 -1.887685,4.193852 -4.202105,4.193852 -2.314263,0 -4.201946,-1.883976 -4.201946,-4.193852 0,-2.391664 -1.805576,-4.1936944 -4.201945,-4.1936944 H 12.89273 c -2.396529,0 -4.2019454,1.8020304 -4.2019454,4.1936944 v 20.968786 c 0,2.391824 1.8054164,4.193694 4.2019454,4.193694 2.314421,0 4.201946,1.883978 4.201946,4.193854 0,2.309717 -1.887525,4.193694 -4.201946,4.193694 -6.9103885,0 -12.6059959,-5.684423 -12.6059959,-12.581242 z M 21.29678,33.862754 c 0,-6.896816 5.695607,-12.58124 12.605998,-12.58124 h 21.009887 c 6.910388,0 12.605996,5.684424 12.605996,12.58124 v 20.96879 c 0,6.896659 -5.695608,12.581239 -12.605996,12.581239 H 33.902778 c -6.910391,0 -12.605998,-5.68458 -12.605998,-12.581239 z m 8.403891,0 v 20.96879 c 0,2.391662 1.805577,4.193692 4.202107,4.193692 h 21.009887 c 2.396529,0 4.202104,-1.80203 4.202104,-4.193692 v -20.96879 c 0,-2.391821 -1.805575,-4.193692 -4.202104,-4.193692 H 33.902778 c -2.39653,0 -4.202107,1.801871 -4.202107,4.193692 z m 0,0"
       fill="#000000"
       id="path1"
       style="stroke-width:4.19787" /><path
       d="m 42.805668,31.904124 c -2.037288,0 -3.779973,2.592013 -4.436518,6.170078 H 50.389911 C 49.734002,34.495027 47.984488,31.904124 45.94736,31.904124 Z m -9.419042,9.255037 c -0.878252,0 -1.577039,1.37423 -1.577039,3.084961 0,1.713267 0.698787,3.084643 1.577039,3.084643 h 7.848196 c 0.871898,0 1.570687,-1.37106 1.570687,-3.084643 0,-1.711366 -0.698789,-3.084961 -1.570687,-3.084961 z m 14.137773,0 c -0.878249,0 -1.577039,1.37423 -1.577039,3.084961 0,1.713267 0.69879,3.084643 1.577039,3.084643 h 7.848038 c 0.871898,0 1.570687,-1.37106 1.570687,-3.084643 0,-1.711366 -0.700378,-3.084961 -1.570687,-3.084961 z m -9.155249,9.255514 c 0.651144,3.579175 2.39923,6.157874 4.436518,6.157874 h 3.141692 c 2.037128,0 3.792201,-2.579334 4.442551,-6.157874 h -4.387284 c -0.01585,0 -0.03176,0.01188 -0.04765,0.01188 h -3.141692 c -0.01585,0 -0.03176,-0.01188 -0.04765,-0.01188 z m 0,0"
       id="path2"
       style="fill:#000000;stroke-width:2.2014" /></g></svg>
