<?xml version="1.0" encoding="UTF-8" standalone="no"?>
<!-- Created with Inkscape (http://www.inkscape.org/) -->

<svg
   width="512"
   height="512"
   viewBox="0 0 512 512"
   version="1.1"
   id="svg1"
   inkscape:version="1.3.2 (091e20ef0f, 2023-11-25)"
   sodipodi:docname="com.github.phase1geo.mosaic-note.svg"
   xmlns:inkscape="http://www.inkscape.org/namespaces/inkscape"
   xmlns:sodipodi="http://sodipodi.sourceforge.net/DTD/sodipodi-0.dtd"
   xmlns="http://www.w3.org/2000/svg"
   xmlns:svg="http://www.w3.org/2000/svg">
  <sodipodi:namedview
     id="namedview1"
     pagecolor="#ffffff"
     bordercolor="#000000"
     borderopacity="0.25"
     inkscape:showpageshadow="2"
     inkscape:pageopacity="0.0"
     inkscape:pagecheckerboard="0"
     inkscape:deskcolor="#d1d1d1"
     inkscape:document-units="px"
     inkscape:zoom="0.70710678"
     inkscape:cx="253.14423"
     inkscape:cy="272.94322"
     inkscape:window-width="1920"
     inkscape:window-height="1019"
     inkscape:window-x="0"
     inkscape:window-y="30"
     inkscape:window-maximized="1"
     inkscape:current-layer="layer1" />
  <defs
     id="defs1">
    <inkscape:path-effect
       effect="fillet_chamfer"
       id="path-effect12"
       is_visible="true"
       lpeversion="1"
       nodesatellites_param="F,0,0,1,0,40.666248,0,1 @ F,0,0,1,0,39.777911,0,1 @ F,0,0,1,0,39.599841,0,1 @ F,0,0,1,0,40.398303,0,1"
       radius="0"
       unit="px"
       method="auto"
       mode="F"
       chamfer_steps="1"
       flexible="false"
       use_knot_distance="true"
       apply_no_radius="true"
       apply_with_radius="true"
       only_selected="false"
       hide_knots="false" />
    <clipPath
       clipPathUnits="userSpaceOnUse"
       id="clipPath12">
      <path
         style="fill:none;fill-opacity:1;stroke:#000000;stroke-width:1;stroke-dasharray:none;stroke-opacity:1"
         id="path13"
         width="512"
         height="512"
         x="-0.37548828"
         y="0.38180542"
         inkscape:path-effect="#path-effect12"
         sodipodi:type="rect"
         d="M 40.29076,0.38180542 H 471.8466 A 39.777911,39.777911 45 0 1 511.62451,40.159716 l 0,432.622244 a 39.599841,39.599841 135 0 1 -39.59984,39.59985 H 40.022815 A 40.398303,40.398303 45 0 1 -0.37548828,471.9835 V 41.048053 A 40.666248,40.666248 135 0 1 40.29076,0.38180542 Z"
         transform="scale(0.98493464,1.0152958)" />
    </clipPath>
  </defs>
  <g
     inkscape:groupmode="layer"
     id="layer3"
     inkscape:label="Color">
    <path
       style="fill:#ff0000;fill-opacity:1;stroke:none;stroke-width:1.98431;stroke-opacity:1"
       d="M 63.22652,329.9663 C 63.213694,189.33302 62.98802,138.39894 62.243123,108.01913 61.711407,86.333667 61.282592,68.147482 61.290199,67.605346 c 0.0076,-0.542137 1.486974,3.597812 3.28748,9.199882 1.800507,5.602071 8.194217,24.379692 14.208245,41.728042 10.013676,28.88593 17.052854,46.77687 83.580116,212.42911 39.95504,99.48766 72.64552,181.02983 72.64552,181.20483 0,0.175 -38.64789,0.31818 -85.8842,0.31818 H 63.243161 Z"
       id="path8"
       inkscape:label="red" />
    <path
       style="fill:#ffd42a;fill-opacity:1;stroke:none;stroke-width:2.13584;stroke-opacity:1"
       d="m 257.27348,431.88032 c -0.10072,-1.98094 -14.14154,-47.2895 -18.57551,-59.94175 -2.45681,-7.01044 -13.03394,-33.05166 -23.50473,-57.86941 l -19.03782,-45.12317 0.18674,-86.44905 0.18674,-86.449034 60.07495,91.015634 60.07494,91.01563 -17.99436,43.31252 c -22.35625,53.81168 -30.68761,76.08773 -39.90602,106.6992 -0.7988,2.65259 -1.47603,4.35784 -1.50493,3.78943 z"
       id="path7"
       inkscape:label="yellow" />
    <path
       style="fill:#0000ff;fill-opacity:1;stroke:none;stroke-width:0;stroke-dasharray:none;stroke-opacity:1"
       d="m 273.98505,511.68494 c 0,-0.31874 34.18354,-85.64779 75.96341,-189.62013 41.77985,-103.97234 77.91939,-194.30319 80.3101,-200.73524 3.76904,-10.14041 9.06505,-25.739326 16.78938,-49.451603 l 2.06804,-6.348509 -0.31641,9.35571 c -0.17403,5.145641 -0.48622,105.661012 -0.69377,223.367492 l -0.37735,214.01179 h -86.87169 c -48.58731,0 -86.87171,-0.25539 -86.87171,-0.57951 z"
       id="path9"
       inkscape:label="blue" />
    <path
       style="fill:#ff6600;fill-opacity:1;stroke:none;stroke-width:0;stroke-dasharray:none;stroke-opacity:1"
       d="m 366.31964,66.190822 -0.0595,-65.57964553 h 31.91336 31.91334 L 427.85678,5.3088588 C 424.95961,11.411743 368.18548,128.2956 367.16059,130.2672 c -0.42979,0.8268 -0.80821,-28.00757 -0.84094,-64.076378 z"
       id="path10"
       inkscape:label="orange" />
    <path
       style="fill:#800080;fill-opacity:1;stroke:none;stroke-width:0;stroke-dasharray:none;stroke-opacity:1"
       d="M 258.82251,89.53737 C 227.80274,40.606431 202.42292,0.38523796 202.42292,0.15694093 c 0,-0.22829694 25.46094,-0.41508523 56.57988,-0.41508523 h 56.57987 V 89.122284 c 0,49.159226 -0.0811,89.380426 -0.18028,89.380426 -0.0992,0 -25.56011,-40.0344 -56.57988,-88.96534 z"
       id="path11"
       inkscape:label="purple" />
    <path
       style="fill:#00ff00;fill-opacity:1;stroke:none;stroke-width:0;stroke-dasharray:none;stroke-opacity:1"
       d="M 118.87656,62.238417 C 104.17754,28.561606 92.006092,0.61464999 91.828894,0.13406957 91.575956,-0.5519232 97.361408,-0.73971287 118.74851,-0.73971287 h 27.2418 V 61.384789 c 0,34.168477 -0.0874,62.115431 -0.19413,62.104351 -0.10671,-0.0113 -12.22059,-27.573909 -26.91962,-61.250723 z"
       id="path12"
       inkscape:label="green" />
  </g>
  <g
     inkscape:label="Layer 1"
     inkscape:groupmode="layer"
     id="layer1">
    <text
       xml:space="preserve"
       style="font-style:normal;font-variant:normal;font-weight:normal;font-stretch:normal;font-size:746.111px;font-family:Arimo;-inkscape-font-specification:'Arimo, Normal';font-variant-ligatures:normal;font-variant-caps:normal;font-variant-numeric:normal;font-variant-east-asian:normal;fill:#000000;fill-opacity:1;stroke:#000000;stroke-width:6.1546"
       x="-59.190361"
       y="516.59351"
       id="text1"
       transform="scale(1.0152958,0.98493459)"
       inkscape:label="M"
       clip-path="url(#clipPath12)"><tspan
         sodipodi:role="line"
         id="tspan1"
         x="-59.190361"
         y="516.59351"
         style="font-style:normal;font-variant:normal;font-weight:normal;font-stretch:normal;font-size:746.111px;font-family:Arimo;-inkscape-font-specification:'Arimo, Normal';font-variant-ligatures:normal;font-variant-caps:normal;font-variant-numeric:normal;font-variant-east-asian:normal;fill:#000000;fill-opacity:1;stroke-width:6.1546">M</tspan></text>
    <text
       xml:space="preserve"
       style="font-style:normal;font-variant:normal;font-weight:normal;font-stretch:normal;font-size:355.565px;font-family:Arimo;-inkscape-font-specification:'Arimo, Normal';font-variant-ligatures:normal;font-variant-caps:normal;font-variant-numeric:normal;font-variant-east-asian:normal;fill:#000000;fill-opacity:1;stroke:#000000;stroke-width:33.3342"
       x="130.82156"
       y="260.91736"
       id="text2"
       transform="scale(0.99189292,1.0081733)"
       inkscape:label="N"><tspan
         sodipodi:role="line"
         id="tspan2"
         x="130.82156"
         y="260.91736"
         style="stroke-width:33.3342">N</tspan></text>
  </g>
</svg>
